<svg xmlns="http://www.w3.org/2000/svg" aria-label="Gentle heart with bandaid" role="img" viewBox="0 0 640 760"><defs><linearGradient id="bg" x1="0" x2="1" y1="0" y2="1"><stop stop-color="#fff4e6"/><stop offset="1" stop-color="#d58f86"/></linearGradient><linearGradient id="heart" x1="0" x2="1" y1="0" y2="1"><stop stop-color="#d98980"/><stop offset="1" stop-color="#784840"/></linearGradient></defs><rect width="640" height="760" fill="url(#bg)" rx="58"/><path fill="url(#heart)" d="M321 542c-114-76-202-152-191-254 8-75 94-107 157-39 48-93 177-72 201 25 27 106-72 193-167 268Z"/><rect width="252" height="76" x="198" y="340" fill="#ffe5be" rx="38" transform="rotate(-10 324 378)"/><circle cx="288" cy="378" r="9" fill="#b87972"/><circle cx="324" cy="371" r="9" fill="#b87972"/><circle cx="360" cy="365" r="9" fill="#b87972"/><path stroke="#fff9ef" stroke-linecap="round" stroke-width="18" d="M118 160h84M456 618h70" opacity=".72"/></svg>