<svg xmlns="http://www.w3.org/2000/svg" aria-label="Tiny apology envelope" role="img" viewBox="0 0 640 760"><defs><linearGradient id="bg" x1="0" x2="1" y1="0" y2="1"><stop stop-color="#fff3e1"/><stop offset="1" stop-color="#d99f93"/></linearGradient></defs><rect width="640" height="760" fill="url(#bg)" rx="58"/><path fill="#fff6e8" d="M118 274c72-92 250-130 363-44 107 81 77 249-31 306-102 54-261 29-328-67-38-54-42-146-4-195Z" opacity=".7"/><rect width="392" height="270" x="124" y="255" fill="#fffaf1" stroke="#7d5147" stroke-opacity=".14" stroke-width="6" rx="32"/><path fill="none" stroke="#a36a58" stroke-linecap="round" stroke-linejoin="round" stroke-width="16" d="M132 280 320 426 508 280" opacity=".42"/><path fill="none" stroke="#a36a58" stroke-linecap="round" stroke-width="14" d="M135 506 276 382M505 506 364 382" opacity=".28"/><path fill="#bd716b" d="M330 350c-31-24-58-51-53-80 4-24 32-31 49-10 17-27 54-16 58 13 6 31-25 57-54 77Z"/><circle cx="104" cy="174" r="20" fill="#fff8eb" opacity=".78"/><circle cx="534" cy="636" r="28" fill="#f4cf9d" opacity=".62"/></svg>