<svg xmlns="http://www.w3.org/2000/svg" aria-label="Warm apology gift" role="img" viewBox="0 0 640 760"><defs><linearGradient id="bg" x1="0" x2="1" y1="0" y2="1"><stop stop-color="#fff9ed"/><stop offset="1" stop-color="#d7b579"/></linearGradient><linearGradient id="box" x1="0" x2="1" y1="0" y2="1"><stop stop-color="#be7969"/><stop offset="1" stop-color="#86544b"/></linearGradient></defs><rect width="640" height="760" fill="url(#bg)" rx="58"/><circle cx="320" cy="302" r="174" fill="#fff2d2" opacity=".58"/><rect width="308" height="198" x="166" y="328" fill="url(#box)" rx="32"/><rect width="360" height="92" x="140" y="274" fill="#70443d" rx="28"/><rect width="58" height="252" x="292" y="274" fill="#f1c77f" opacity=".92"/><path fill="#bd716b" d="M317 269c-82-46-81-112-38-122 42-10 55 58 38 122Zm22 0c75-56 61-122 16-126-43-3-45 67-16 126Z"/><path stroke="#7d5147" stroke-linecap="round" stroke-width="18" d="M205 602h230" opacity=".24"/><circle cx="116" cy="248" r="18" fill="#c98276" opacity=".42"/><circle cx="522" cy="202" r="16" fill="#fff7e7" opacity=".82"/></svg>