<svg xmlns="http://www.w3.org/2000/svg" viewBox="0 0 640 760" role="img" aria-label="Warm apology gift">
  <defs>
    <linearGradient id="bg" x1="0" x2="1" y1="0" y2="1">
      <stop stop-color="#fff9ed"/>
      <stop offset="1" stop-color="#d7b579"/>
    </linearGradient>
    <linearGradient id="box" x1="0" x2="1" y1="0" y2="1">
      <stop stop-color="#be7969"/>
      <stop offset="1" stop-color="#86544b"/>
    </linearGradient>
  </defs>
  <rect width="640" height="760" rx="58" fill="url(#bg)"/>
  <circle cx="320" cy="302" r="174" fill="#fff2d2" opacity=".58"/>
  <rect x="166" y="328" width="308" height="198" rx="32" fill="url(#box)"/>
  <rect x="140" y="274" width="360" height="92" rx="28" fill="#70443d"/>
  <rect x="292" y="274" width="58" height="252" fill="#f1c77f" opacity=".92"/>
  <path d="M317 269c-82-46-81-112-38-122 42-10 55 58 38 122Zm22 0c75-56 61-122 16-126-43-3-45 67-16 126Z" fill="#bd716b"/>
  <path d="M205 602h230" stroke="#7d5147" stroke-width="18" stroke-linecap="round" opacity=".24"/>
  <circle cx="116" cy="248" r="18" fill="#c98276" opacity=".42"/>
  <circle cx="522" cy="202" r="16" fill="#fff7e7" opacity=".82"/>
</svg>
